REM DIRINDEX 1\2\4,1\2\5,1\3\6,1\3\7,1\3\8
REM DIRNAME folder01,folder02,folder03,folder04,folder05,folder06,folder07,folder08
TITLE ""
FILE "LV2_027_WORDS.mp3" MP3
  TRACK 01 AUDIO
    TITLE "0:"
    INDEX 01 00:00:00
  TRACK 02 AUDIO
    TITLE "6:cjc094_1010"
    INDEX 01 00:00:05
  TRACK 03 AUDIO
    TITLE "0:"
    INDEX 01 00:02:61
  TRACK 04 AUDIO
    TITLE "7:cjc094_1011"
    INDEX 01 00:03:41
  TRACK 05 AUDIO
    TITLE "0:"
    INDEX 01 00:04:42
  TRACK 06 AUDIO
    TITLE "8:cjc094_1012"
    INDEX 01 00:04:54
  TRACK 07 AUDIO
    TITLE "0:"
    INDEX 01 00:07:07
  TRACK 08 AUDIO
    TITLE "7:cjc094_1013"
    INDEX 01 00:07:54
  TRACK 09 AUDIO
    TITLE "0:"
    INDEX 01 00:08:58
  TRACK 10 AUDIO
    TITLE "8:cjc094_1014"
    INDEX 01 00:08:72
  TRACK 11 AUDIO
    TITLE "0:"
    INDEX 01 00:09:73
  TRACK 12 AUDIO
    TITLE "7:cjc094_1015"
    INDEX 01 00:10:47
  TRACK 13 AUDIO
    TITLE "0:"
    INDEX 01 00:11:64
  TRACK 14 AUDIO
    TITLE "8:cjc094_1016"
    INDEX 01 00:12:03
  TRACK 15 AUDIO
    TITLE "0:"
    INDEX 01 00:13:16
  TRACK 16 AUDIO
    TITLE "7:cjc094_1017"
    INDEX 01 00:13:63
  TRACK 17 AUDIO
    TITLE "0:"
    INDEX 01 00:14:64
  TRACK 18 AUDIO
    TITLE "8:cjc094_1018"
    INDEX 01 00:15:09
  TRACK 19 AUDIO
    TITLE "0:"
    INDEX 01 00:17:10
  TRACK 20 AUDIO
    TITLE "7:cjc094_1019"
    INDEX 01 00:17:61
  TRACK 21 AUDIO
    TITLE "0:"
    INDEX 01 00:18:52
  TRACK 22 AUDIO
    TITLE "8:cjc094_1020"
    INDEX 01 00:18:70
  TRACK 23 AUDIO
    TITLE "0:"
    INDEX 01 00:20:02
  TRACK 24 AUDIO
    TITLE "7:cjc094_1021"
    INDEX 01 00:20:45
  TRACK 25 AUDIO
    TITLE "0:"
    INDEX 01 00:21:41
  TRACK 26 AUDIO
    TITLE "8:cjc094_1022"
    INDEX 01 00:21:57
  TRACK 27 AUDIO
    TITLE "0:"
    INDEX 01 00:22:68
  TRACK 28 AUDIO
    TITLE "7:cjc094_1023"
    INDEX 01 00:23:42
  TRACK 29 AUDIO
    TITLE "0:"
    INDEX 01 00:24:41
  TRACK 30 AUDIO
    TITLE "8:cjc094_1024"
    INDEX 01 00:24:53
  TRACK 31 AUDIO
    TITLE "0:"
    INDEX 01 00:25:58
  TRACK 32 AUDIO
    TITLE "7:cjc094_1025"
    INDEX 01 00:26:22
  TRACK 33 AUDIO
    TITLE "0:"
    INDEX 01 00:27:16
  TRACK 34 AUDIO
    TITLE "8:cjc094_1026"
    INDEX 01 00:27:32
  TRACK 35 AUDIO
    TITLE "0:"
    INDEX 01 00:29:11
  TRACK 36 AUDIO
    TITLE "7:cjc094_1027"
    INDEX 01 00:29:56
  TRACK 37 AUDIO
    TITLE "0:"
    INDEX 01 00:30:61
  TRACK 38 AUDIO
    TITLE "8:cjc094_1028"
    INDEX 01 00:31:00
  TRACK 39 AUDIO
    TITLE "0:"
    INDEX 01 00:32:47
  TRACK 40 AUDIO
    TITLE "7:cjc094_1029"
    INDEX 01 00:33:21
  TRACK 41 AUDIO
    TITLE "0:"
    INDEX 01 00:34:26
  TRACK 42 AUDIO
    TITLE "8:cjc094_1030"
    INDEX 01 00:34:42
  TRACK 43 AUDIO
    TITLE "0:"
    INDEX 01 00:35:53
  TRACK 44 AUDIO
    TITLE "7:cjc094_1031"
    INDEX 01 00:36:23
  TRACK 45 AUDIO
    TITLE "0:"
    INDEX 01 00:37:20
  TRACK 46 AUDIO
    TITLE "8:cjc094_1032"
    INDEX 01 00:37:38
  TRACK 47 AUDIO
    TITLE "0:"
    INDEX 01 00:38:59
  TRACK 48 AUDIO
    TITLE "7:cjc094_1033"
    INDEX 01 00:39:29
  TRACK 49 AUDIO
    TITLE "0:"
    INDEX 01 00:40:32
  TRACK 50 AUDIO
    TITLE "8:cjc094_1034"
    INDEX 01 00:40:48
  TRACK 51 AUDIO
    TITLE "0:"
    INDEX 01 00:41:55
  TRACK 52 AUDIO
    TITLE "7:cjc094_1035"
    INDEX 01 00:42:31
  TRACK 53 AUDIO
    TITLE "0:"
    INDEX 01 00:44:22
  TRACK 54 AUDIO
    TITLE "8:cjc094_1036"
    INDEX 01 00:44:40
  TRACK 55 AUDIO
    TITLE "0:"
    INDEX 01 00:50:01
  TRACK 56 AUDIO
    TITLE "7:cjc094_1037"
    INDEX 01 00:50:46
  TRACK 57 AUDIO
    TITLE "0:"
    INDEX 01 00:51:52
  TRACK 58 AUDIO
    TITLE "8:cjc094_1038"
    INDEX 01 00:51:63
  TRACK 59 AUDIO
    TITLE "0:"
    INDEX 01 00:53:57
